<?xml version="1.0" encoding="utf-8"?>
<!-- Generator: Adobe Illustrator 16.0.0, SVG Export Plug-In . SVG Version: 6.00 Build 0)  -->
<!DOCTYPE svg PUBLIC "-//W3C//DTD SVG 1.1//EN" "http://www.w3.org/Graphics/SVG/1.1/DTD/svg11.dtd">
<svg version="1.1" id="春分" xmlns="http://www.w3.org/2000/svg" xmlns:xlink="http://www.w3.org/1999/xlink" x="0px" y="0px"
	 width="200.014px" height="200.012px" viewBox="486 0 200.014 200.012" enable-background="new 486 0 200.014 200.012"
	 xml:space="preserve">
<path fill="#F5AD22" stroke="#7B6728" stroke-miterlimit="10" d="M521.455,54.636c-0.88,0.518-24.034,46.87-14.635,51.739
	c9.399,4.871,36.872-17.371,39.477-23.975C548.9,75.797,521.455,54.636,521.455,54.636z"/>
<path fill="#3C1A09" stroke="#140604" stroke-miterlimit="10" d="M579.393,23.005c-19.372-1.833-38.51,2.714-49.658,28.214
	c-11.625,26.589-11.762,55.347-8.025,72.036c1.875,8.375,5.5,20.125,12.634,21.763c1.103,0.253,1.866-0.825,6.116-4.263
	c0,0,0.812,0.807,7.25,3.688c0,0,1.583,0.099,4.572-6.197"/>
<path fill="#3C1A09" stroke="#140604" stroke-miterlimit="10" d="M598.739,20.63c19.453,0.435,37.932,7.181,46.033,33.806
	c8.449,27.763,5.235,56.34-0.42,72.481c-2.838,8.1-7.807,19.347-15.082,20.143c-1.125,0.123-1.758-1.037-5.578-4.946
	c0,0-0.9,0.707-7.631,2.818c0,0-1.583-0.087-3.818-6.688"/>
<path fill="#FBE1D3" stroke="#652517" stroke-width="1.208" stroke-miterlimit="10" d="M544.098,108.7
	c0,9.402-1.6,19.801-8.384,19.801c-6.782,0-16.179-10.398-16.179-19.801c0-9.404,5.498-17.026,12.281-17.026
	S544.098,99.296,544.098,108.7z"/>
<rect x="573.69" y="147.916" fill="#FBE1D3" stroke="#652517" stroke-width="1.2885" stroke-miterlimit="10" width="27.029" height="20.963"/>
<path fill="#FBE1D3" stroke="#652517" stroke-width="1.208" stroke-miterlimit="10" d="M626.704,108.7
	c0,9.402,1.598,19.801,8.381,19.801s16.18-10.398,16.18-19.801c0-9.404-5.498-17.026-12.279-17.026
	C632.2,91.674,626.704,99.296,626.704,108.7z"/>
<path fill="#FBE1D3" stroke="#652517" stroke-width="1.188" stroke-miterlimit="10" d="M645.382,102.559
	c8.439,26.75-26.887,51.338-60.051,51.338s-68.422-24.563-60.05-51.338c8.019-25.644,26.886-51.339,60.05-51.339
	S637.231,76.726,645.382,102.559z"/>
<path fill="#FBE1D3" d="M636.243,80.844c0,38.861-15.775,72.057-51.541,72.057s-53.441-39.629-53.441-78.489
	s38.102-33.459,53.023-33.459C593.813,40.952,636.243,41.984,636.243,80.844z"/>
<path fill="#66341A" d="M553.439,96.798c3.154,0,5.71,4.598,5.71,10.268s-2.556,10.268-5.71,10.268c-3.152,0-5.71-4.598-5.71-10.268
	c0-5.412,2.328-9.844,5.28-10.24C553.151,96.808,553.295,96.798,553.439,96.798z"/>
<ellipse fill="#66341A" cx="617.573" cy="107.066" rx="5.879" ry="10.268"/>
<path fill="none" stroke="#66341A" stroke-width="0.9377" stroke-miterlimit="10" d="M581.917,112.684c0,0,3.316-5.84,6.846,0"/>
<path fill="none" stroke="#66341A" stroke-width="0.9832" stroke-miterlimit="10" d="M573.665,135.496c0,0,9.646,6.011,24.726-0.5"
	/>
<path fill="#FEF6E9" stroke="#652517" stroke-width="1.3608" stroke-miterlimit="10" d="M570.709,159.097
	c0,0,12.918,3.347,13.043,7.847c0.047,1.697,6.935,2.006,7.567-0.156c1.229-4.198,8.354-6.531,13.223-7.276v9.377l35.285,9.609
	H537.699l33.211-9.908L570.709,159.097z"/>
<path fill="#3C1A09" stroke="#140604" stroke-miterlimit="10" d="M526.122,71.16c0,0-2.09,15.173,1.552,40.227l20.705-31.521
	c0,0,20.618,9.97,38.826,15.636c0,0-0.153-18.042,3.582-17.336c0,0,28.711,14.288,35.917,18.211c0,0-0.368-14.349,0.553-13.824
	c1.053,0.6,1.448-1.123,11.728,26.24c0,0,15.771-13.85,4.453-49.777c-6.372-20.227-23.264-43.806-58.987-34.11
	C584.45,24.904,537.229,9.004,526.122,71.16z"/>
<path fill="#66341A" d="M546.969,96.371c4.366-11.509,13.276-2.608,13.276-2.608S553.486,91.982,546.969,96.371z"/>
<path fill="#66341A" d="M610.762,93.6c8.416-8.982,13.271,2.639,13.271,2.639S618.46,92.021,610.762,93.6z"/>
<g>
	<path fill="#F5AD22" stroke="#7B6728" stroke-width="0.9428" stroke-miterlimit="10" d="M645.361,84.911
		c-8.503,3.3-58.63-12.434-58.63-12.434c-6.163,0-57.772,16.519-62.042,8.662s-7.897-24.639,1.975-46.025
		s101.087-18.994,113.259-4.466C649.42,41.984,653.864,81.61,645.361,84.911z"/>
	<path fill="#3C1A09" stroke="#140604" stroke-width="0.9428" stroke-miterlimit="10" d="M520.355,54.426
		c0,0,51.875-28.956,128.152-0.042c0,0,1.768,7.192,1.374,9.863c0,0-78.828-13.671-129.483-0.393
		C520.398,63.854,519.742,57.805,520.355,54.426z"/>
	<path fill="#93D0F2" stroke="#3C1A09" stroke-width="1.8857" stroke-miterlimit="10" d="M583.298,51.349
		c1.159,5.789-2.595,11.422-8.384,12.582l-31.576,6.322c-5.789,1.16-11.422-2.594-12.581-8.383l-1.876-9.37
		c-1.159-5.789,2.717-14.557,8.507-15.716l28.734-5.92c5.789-1.159,14.141,5.328,15.3,11.116L583.298,51.349z"/>
	<path fill="#93D0F2" stroke="#3C1A09" stroke-width="1.8857" stroke-miterlimit="10" d="M587.012,51.407
		c-1.338,5.75,2.239,11.497,7.991,12.834l31.365,7.296c5.751,1.338,11.497-2.239,12.835-7.99l2.164-9.308
		c1.337-5.75-2.266-14.634-8.017-15.972l-28.536-6.807c-5.752-1.337-14.3,4.888-15.637,10.638L587.012,51.407z"/>
</g>
</svg>
